<svg width="37" height="34" viewBox="0 0 37 34" fill="none" xmlns="http://www.w3.org/2000/svg">
<path d="M35.4584 4.24996C33.9821 5.20689 32.3475 5.93878 30.6176 6.41746C29.6891 5.43644 28.4551 4.74111 27.0826 4.42553C25.71 4.10994 24.2651 4.18932 22.9433 4.65294C21.6214 5.11655 20.4864 5.94203 19.6918 7.01773C18.8971 8.09343 18.4811 9.36744 18.5001 10.6675V12.0841C15.7908 12.1487 13.1062 11.5965 10.6854 10.4768C8.26456 9.35716 6.18265 7.7047 4.62508 5.66663C4.62508 5.66663 -1.54158 18.4166 12.3334 24.0833C9.15839 26.0637 5.37611 27.0568 1.54175 26.9166C15.4167 34 32.3751 26.9166 32.3751 10.625C32.3737 10.2304 32.3324 9.83672 32.2517 9.44913C33.8252 8.02325 34.9355 6.22297 35.4584 4.24996V4.24996Z" stroke="#254336" stroke-linecap="round" stroke-linejoin="round"/>
</svg>
